<svg id="Layer_1" data-name="Layer 1" xmlns="http://www.w3.org/2000/svg" xmlns:xlink="http://www.w3.org/1999/xlink" viewBox="0 0 308.916 58.5416"><defs><style>.cls-1{fill:url(#linear-gradient);}</style><linearGradient id="linear-gradient" x1="0.084" y1="29.0208" x2="309" y2="29.0208" gradientUnits="userSpaceOnUse"><stop offset="0" stop-color="#29abe2"/><stop offset="1" stop-color="#39b54a"/></linearGradient></defs><title>Dawaa2</title><path class="cls-1" d="M21.4444,50.0265l5.1607,2.1772a26.1185,26.1185,0,0,0,4.0923,1.4716,12.9862,12.9862,0,0,0,3.0453.383q6.6948,0,10.75-8.7692a44.2756,44.2756,0,0,0,4.0533-18.8083q0-10.6036-5.1405-17.0746A16.3563,16.3563,0,0,0,29.96,2.9351,19.3373,19.3373,0,0,0,17.4812,7.7128q-5.8259,4.7777-5.8259,10.1a5.396,5.396,0,0,0,3.3867,5.4429q1.4514.6864,1.4514,1.8143,0,1.17-3.165,2.54a16.1138,16.1138,0,0,1-3.85,1.3708q-2.0562,0-3.6286-2.3989A9.4674,9.4674,0,0,1,4.277,21.28q0-7.7007,8.0434-14.6153T33.2656-.25q12.3373,0,19.6752,6.7936t7.3379,18.2035a32.45,32.45,0,0,1-4.5358,16.53A34.2449,34.2449,0,0,1,43.5266,53.6954a31.1794,31.1794,0,0,1-16.2683,4.5962,29.5372,29.5372,0,0,1-13.4662-3.1448q-5.04,3.1448-8.749,3.1448a5.2789,5.2789,0,0,1-3.5278-1.21A3.72,3.72,0,0,1,.084,54.1389q0-2.8212,2.9432-4.7575a13.16,13.16,0,0,1,7.3782-1.9353,17.9713,17.9713,0,0,1,6.0074,1.0079,10.5656,10.5656,0,0,0,3.4673-5.04,67.3856,67.3856,0,0,0,1.8546-10.402A40.6373,40.6373,0,0,1,24.6376,21.28a18.5534,18.5534,0,0,1,5.8259-7.1564,15.986,15.986,0,0,1,7.7612-3.3262l1.5724,2.1369A18.918,18.918,0,0,0,36.07,18.0953q-1.2277,2.6217-2.2215,11.2682-.9959,8.6482-3.7966,12.9824A24.5449,24.5449,0,0,1,21.4444,50.0265Zm96.69-1.6127q-9.2731,9.8789-17.0142,9.8779a8.3264,8.3264,0,0,1-6.7734-3.0238q-2.5-3.0238-2.7819-8.628a55.3168,55.3168,0,0,1-8.6482,8.7893,13.0657,13.0657,0,0,1-8.0434,2.8626,10.2766,10.2766,0,0,1-8.8095-4.7374q-3.3262-4.7374-3.3262-12.64a48.6565,48.6565,0,0,1,4.3543-19.4534A35.9911,35.9911,0,0,1,79.9941,5.6364Q88.5415-.1694,100.7175-.1694a51.9725,51.9725,0,0,1,16.49,2.4594V4.951Q111.2,11.9663,107.1483,24.5858t-4.052,19.2317a8.2856,8.2856,0,0,0,1.31,4.9994,4.2774,4.2774,0,0,0,3.6488,1.774q4.1931,0,10.0795-6.8137ZM106.4024,4.951a16.4582,16.4582,0,0,0-7.983-2.0159q-6.7331,0-12.1357,5.6244a39.2163,39.2163,0,0,0-8.5272,14.8975,51.5779,51.5779,0,0,0-3.1246,16.0869,13.9228,13.9228,0,0,0,1.7538,7.3983,5.1759,5.1759,0,0,0,4.4954,2.8424q4.7575,0,10.9262-8.6684Q94.3473,18.3769,106.4024,4.951Zm49.5507,39.6325Q148.6959,58.212,140.1485,58.211a8.822,8.822,0,0,1-7.1766-3.2859,13.2489,13.2489,0,0,1-2.7013-8.6885q0-6.29,4.4954-19.1107t4.4954-18.1431a5.85,5.85,0,0,0-1.3507-3.9512,4.2589,4.2589,0,0,0-3.3665-1.5724q-3.1045,0-6.1686,3.79a12.2407,12.2407,0,0,0-3.0642,7.741,9.9579,9.9579,0,0,0,2.7416,6.29,4.22,4.22,0,0,1,1.1289,1.8949q0,.6048-1.7337,2.7013t-2.9835,2.0965q-1.33,0-3.0238-1.9353t-1.6934-5.7655A21.2228,21.2228,0,0,1,125.2107,6.12q5.4631-6.37,12.0752-6.37a10.5334,10.5334,0,0,1,8.3861,4.1084,15.4324,15.4324,0,0,1,3.427,10.23q-.0585,6.4448-4.1743,18.2439t-4.0909,15.7946a4.4151,4.4151,0,0,0,.9676,3.007,3.251,3.251,0,0,0,2.58,1.11q3.5077,0,6.975-5.7251t6.33-16.4094l3.79-14.1919a100.6889,100.6889,0,0,1,4.9564-14.6354q.28-.6854,3.7657-1.0684t5.0572-.383q1.57,0,1.5711.6417l-7.3889,28.14q-3.165,12.3806-3.1636,18.1068a6.7256,6.7256,0,0,0,1.0483,3.9727,3.2913,3.2913,0,0,0,2.8223,1.4716q2.6207,0,7.1564-4.2939a35.4922,35.4922,0,0,0,7.64-10.9665,32.0335,32.0335,0,0,0,3.1045-13.6476,33.3382,33.3382,0,0,0-3.6286-14.837,9.789,9.789,0,0,1-1.0079-2.661q0-1.7327,3.3262-3.83,3.3262-2.0955,4.7777-2.0965,1.3708,0,2.7618,3.6488a21.27,21.27,0,0,1,1.391,7.64,53.0324,53.0324,0,0,1-4.9591,21.7112A57.7739,57.7739,0,0,1,178.37,51.0747q-7.3782,7.1363-13.3452,7.1363a7.8722,7.8722,0,0,1-6.7129-3.4069Q155.8322,51.3973,155.9531,44.5835Zm97.1662,3.83q-9.2731,9.8789-17.0142,9.8779a8.3264,8.3264,0,0,1-6.7734-3.0238q-2.5-3.0238-2.7819-8.628a55.3168,55.3168,0,0,1-8.6482,8.7893,13.0657,13.0657,0,0,1-8.0434,2.8626,10.2766,10.2766,0,0,1-8.8095-4.7374q-3.3262-4.7374-3.3262-12.64a48.6565,48.6565,0,0,1,4.3543-19.4534A35.9911,35.9911,0,0,1,214.9786,5.6364Q223.526-.1694,235.702-.1694A51.9725,51.9725,0,0,1,252.192,2.29V4.951q-6.0074,7.0153-10.0593,19.6348t-4.052,19.2317a8.2856,8.2856,0,0,0,1.31,4.9994,4.2774,4.2774,0,0,0,3.6488,1.774q4.1931,0,10.0795-6.8137ZM241.3868,4.951a16.4582,16.4582,0,0,0-7.983-2.0159q-6.7331,0-12.1357,5.6244a39.2163,39.2163,0,0,0-8.5272,14.8975,51.5779,51.5779,0,0,0-3.1246,16.0869,13.9228,13.9228,0,0,0,1.7538,7.3983,5.1759,5.1759,0,0,0,4.4954,2.8424q4.7575,0,10.9262-8.6684Q229.3318,18.3769,241.3868,4.951ZM309,48.4137q-9.2731,9.8789-17.0142,9.8779a8.3264,8.3264,0,0,1-6.7734-3.0238q-2.5-3.0238-2.7819-8.628a55.3168,55.3168,0,0,1-8.6482,8.7893,13.0657,13.0657,0,0,1-8.0434,2.8626,10.2766,10.2766,0,0,1-8.8095-4.7374q-3.3262-4.7374-3.3262-12.64a48.6565,48.6565,0,0,1,4.3543-19.4534A35.9911,35.9911,0,0,1,270.8592,5.6364q8.5474-5.8058,20.7234-5.8058a51.9725,51.9725,0,0,1,16.49,2.4594V4.951q-6.0074,7.0153-10.0593,19.6348t-4.052,19.2317a8.2856,8.2856,0,0,0,1.31,4.9994,4.2774,4.2774,0,0,0,3.6488,1.774q4.1931,0,10.0795-6.8137ZM297.2675,4.951a16.4582,16.4582,0,0,0-7.983-2.0159q-6.7331,0-12.1357,5.6244a39.2163,39.2163,0,0,0-8.5272,14.8975,51.5779,51.5779,0,0,0-3.1246,16.0869,13.9228,13.9228,0,0,0,1.7538,7.3983,5.1759,5.1759,0,0,0,4.4954,2.8424q4.7575,0,10.9262-8.6684Q285.2124,18.3769,297.2675,4.951Z" transform="translate(-0.084 0.25)"/></svg>